<?xml version="1.0" encoding="UTF-8" standalone="no"?>
<svg
   xmlns:dc="http://purl.org/dc/elements/1.1/"
   xmlns:cc="http://creativecommons.org/ns#"
   xmlns:rdf="http://www.w3.org/1999/02/22-rdf-syntax-ns#"
   xmlns:svg="http://www.w3.org/2000/svg"
   xmlns="http://www.w3.org/2000/svg"
   xmlns:sodipodi="http://sodipodi.sourceforge.net/DTD/sodipodi-0.dtd"
   xmlns:inkscape="http://www.inkscape.org/namespaces/inkscape"
   width="210mm"
   height="297mm"
   viewBox="0 0 190.48819 269.40472"
   fill="none"
   stroke="#f24783"
   stroke-width="3"
   stroke-linecap="round"
   stroke-linejoin="round"
   class="feather feather-heart"
   version="1.1"
   id="svg4"
   sodipodi:docname="heart(2).svg"
   inkscape:version="1.0.1 (3bc2e813f5, 2020-09-07)">
  <metadata
     id="metadata10">
    <rdf:RDF>
      <cc:Work
         rdf:about="">
        <dc:format>image/svg+xml</dc:format>
        <dc:type
           rdf:resource="http://purl.org/dc/dcmitype/StillImage" />
        <dc:title></dc:title>
      </cc:Work>
    </rdf:RDF>
  </metadata>
  <defs
     id="defs8" />
  <sodipodi:namedview
     pagecolor="#ffffff"
     bordercolor="#666666"
     borderopacity="1"
     objecttolerance="10"
     gridtolerance="10"
     guidetolerance="10"
     inkscape:pageopacity="0"
     inkscape:pageshadow="2"
     inkscape:window-width="1366"
     inkscape:window-height="715"
     id="namedview6"
     showgrid="false"
     inkscape:zoom="1.9374726"
     inkscape:cx="80.591958"
     inkscape:cy="113.7893"
     inkscape:window-x="-8"
     inkscape:window-y="-8"
     inkscape:window-maximized="1"
     inkscape:current-layer="svg4"
     units="mm"
     inkscape:document-units="cm"
     showguides="false" />
  <text
     xml:space="preserve"
     style="font-style:normal;font-weight:normal;font-size:9.76206px;line-height:1.25;font-family:sans-serif;fill:#7728ab;fill-opacity:1;stroke:none;stroke-width:0.488107"
     x="0.15685639"
     y="7.8760324"
     id="text837"><tspan
       sodipodi:role="line"
       id="tspan835"
       x="0.15685639"
       y="7.8760324"
       style="font-style:normal;font-variant:normal;font-weight:bold;font-stretch:normal;font-family:'Arial Rounded MT Bold';-inkscape-font-specification:'Arial Rounded MT Bold,  Bold';fill:#7728ab;fill-opacity:1;stroke-width:0.488107">Petv   c</tspan></text>
  <path
     d="m 27.216245,2.9132531 a 1.586486,1.586486 0 0 0 -2.244148,0 L 24.666336,3.2190123 24.360578,2.9132531 A 1.5868589,1.5868589 0 0 0 22.11642,5.1574099 l 0.305759,0.3057589 2.244157,2.2441564 2.244155,-2.2441564 0.305754,-0.3057589 a 1.586486,1.586486 0 0 0 0,-2.2441568 z"
     id="path2"
     style="stroke-width:0.865357" />
  <text
     xml:space="preserve"
     style="font-style:normal;font-weight:normal;font-size:9.76206px;line-height:1.25;font-family:sans-serif;fill:#f8b17d;fill-opacity:1;stroke:none;stroke-width:0.488107"
     x="0.042102169"
     y="19.815508"
     id="text837-9"
     inkscape:export-xdpi="96"
     inkscape:export-ydpi="96"><tspan
       sodipodi:role="line"
       id="tspan835-3"
       x="0.042102169"
       y="19.815508"
       style="font-style:normal;font-variant:normal;font-weight:bold;font-stretch:normal;font-family:'Arial Rounded MT Bold';-inkscape-font-specification:'Arial Rounded MT Bold, Bold';fill:#f8b17d;fill-opacity:1;stroke-width:0.488107">Petv   c</tspan></text>
  <path
     d="m 27.101493,14.852728 a 1.586486,1.586486 0 0 0 -2.244153,0 l -0.305758,0.305759 -0.30576,-0.305759 a 1.5868588,1.5868588 0 0 0 -2.244156,2.244157 l 0.305759,0.305758 2.244157,2.244157 2.244154,-2.244157 0.305757,-0.305758 a 1.586486,1.586486 0 0 0 0,-2.244157 z"
     id="path2-2"
     style="stroke-width:0.865357"
     inkscape:export-xdpi="96"
     inkscape:export-ydpi="96" />
  <text
     xml:space="preserve"
     style="font-style:normal;font-weight:normal;font-size:9.76206px;line-height:1.25;font-family:sans-serif;fill:#f67280;fill-opacity:1;stroke:none;stroke-width:0.488107"
     x="-0.22420007"
     y="30.291965"
     id="text837-9-5"><tspan
       sodipodi:role="line"
       id="tspan835-3-2"
       x="-0.22420007"
       y="30.291965"
       style="font-style:normal;font-variant:normal;font-weight:bold;font-stretch:normal;font-family:'Arial Rounded MT Bold';-inkscape-font-specification:'Arial Rounded MT Bold, Bold';fill:#f67280;fill-opacity:1;stroke-width:0.488107">Petv   c</tspan></text>
  <path
     d="m 26.835193,25.329186 a 1.586486,1.586486 0 0 0 -2.244153,0 l -0.305758,0.305761 -0.305759,-0.305761 a 1.5868597,1.5868597 0 0 0 -2.244159,2.244158 l 0.305759,0.305759 2.244159,2.244159 2.244151,-2.244159 0.30576,-0.305759 a 1.586486,1.586486 0 0 0 0,-2.244158 z"
     id="path2-2-0"
     style="stroke-width:0.865357" />
  <text
     xml:space="preserve"
     style="font-style:normal;font-weight:normal;font-size:9.76206px;line-height:1.25;font-family:sans-serif;fill:#6c5b7b;fill-opacity:1;stroke:none;stroke-width:0.488107"
     x="-0.34482771"
     y="40.93502"
     id="text837-9-5-0"><tspan
       sodipodi:role="line"
       id="tspan835-3-2-4"
       x="-0.34482771"
       y="40.93502"
       style="font-style:normal;font-variant:normal;font-weight:bold;font-stretch:normal;font-family:'Arial Rounded MT Bold';-inkscape-font-specification:'Arial Rounded MT Bold, Bold';fill:#6c5b7b;fill-opacity:1;stroke-width:0.488107">Petv   c</tspan></text>
  <path
     d="m 26.714563,35.972248 a 1.586486,1.586486 0 0 0 -2.244149,0 l -0.305758,0.305756 -0.305759,-0.305756 a 1.5868589,1.5868589 0 0 0 -2.244159,2.244155 l 0.305759,0.305759 2.244159,2.244156 2.24415,-2.244156 0.305757,-0.305759 a 1.586486,1.586486 0 0 0 0,-2.244155 z"
     id="path2-2-0-7"
     style="stroke-width:0.865357" />
</svg>
